<svg width="35" height="33" viewBox="0 0 35 33" fill="none" xmlns="http://www.w3.org/2000/svg">
<path d="M10.9004 22.5476L25.2886 21.4291C29.7906 21.0793 30.8012 20.162 31.3002 15.9739L32.3504 7.15646" stroke="black" stroke-width="2" stroke-linecap="round"/>
<path d="M7.59961 7.15646H33.9996" stroke="black" stroke-width="2" stroke-linecap="round"/>
<path d="M7.5998 31.7823C9.42234 31.7823 10.8998 30.4041 10.8998 28.7041C10.8998 27.004 9.42234 25.6258 7.5998 25.6258C5.77726 25.6258 4.2998 27.004 4.2998 28.7041C4.2998 30.4041 5.77726 31.7823 7.5998 31.7823Z" stroke="black" stroke-width="2"/>
<path d="M25.7502 31.7823C27.5727 31.7823 29.0502 30.4041 29.0502 28.7041C29.0502 27.004 27.5727 25.6258 25.7502 25.6258C23.9277 25.6258 22.4502 27.004 22.4502 28.7041C22.4502 30.4041 23.9277 31.7823 25.7502 31.7823Z" stroke="black" stroke-width="2"/>
<path d="M10.9004 28.7041H22.4504" stroke="black" stroke-width="2" stroke-linecap="round"/>
<path d="M1 1H2.5939C4.15262 1 5.51133 1.96132 5.88938 3.33165L10.7986 21.1262C11.0466 22.0255 10.8343 22.9781 10.2206 23.7198L8.64302 25.6258" stroke="black" stroke-width="2" stroke-linecap="round"/>
</svg>
