<svg width="36" height="36" viewBox="0 0 36 36" fill="none" xmlns="http://www.w3.org/2000/svg">
<path d="M24.375 15.243C24.375 12.0383 21.5208 9.44031 18 9.44031C14.4792 9.44031 11.625 12.0383 11.625 15.243C11.625 18.4478 14.4792 21.0457 18 21.0457C21.5208 21.0457 24.375 18.4478 24.375 15.243Z" stroke="black" stroke-width="2" stroke-linecap="round" stroke-linejoin="round"/>
<path d="M35 17.8806C35 8.5577 27.3888 1 18 1C8.61116 1 1 8.5577 1 17.8806C1 27.2034 8.61116 34.7612 18 34.7612C27.3888 34.7612 35 27.2034 35 17.8806Z" stroke="black" stroke-width="2" stroke-linecap="round" stroke-linejoin="round"/>
<path d="M29 30.7893C29 25.3053 24.0751 20.8595 18 20.8595C11.9249 20.8595 7 25.3053 7 30.7893" stroke="black" stroke-width="2" stroke-linecap="round" stroke-linejoin="round"/>
</svg>
