<svg width="53" height="37" viewBox="0 0 53 37" fill="none" xmlns="http://www.w3.org/2000/svg">
<path d="M31.7807 16.1505H47.7193V5.20081H31.7807V16.1505ZM39.75 13.4599L33.8212 9.398V7.30059L39.75 11.3602L45.6812 7.30059V9.398L39.75 13.4599ZM0 36.1376V0H53V36.1352L0 36.1376ZM33.2093 33.7649H50.5909V2.37263H2.40909V33.7626H5.33855C7.02491 31.6193 9.07505 29.8976 11.489 28.5974C13.9029 27.2971 16.4975 26.647 19.2727 26.647C22.048 26.647 24.6418 27.2971 27.0541 28.5974C29.4664 29.8976 31.5181 31.6201 33.2093 33.7649ZM23.5344 21.6266C24.7084 20.4719 25.2955 19.072 25.2955 17.427C25.2955 15.782 24.7092 14.3837 23.5368 13.2322C22.3644 12.0807 20.943 11.5017 19.2727 11.4954C17.6024 11.4891 16.1811 12.0664 15.0086 13.2274C13.8362 14.3884 13.25 15.7883 13.25 17.427C13.25 19.0657 13.8362 20.4648 15.0086 21.6242C16.1811 22.7836 17.6024 23.361 19.2727 23.3562C20.943 23.3515 22.3644 22.7741 23.5368 21.6242M8.55227 33.7626H29.9932C28.5959 32.2599 26.9722 31.0934 25.122 30.2629C23.2702 29.4325 21.3205 29.0173 19.2727 29.0173C17.225 29.0173 15.2777 29.4325 13.4307 30.2629C11.5837 31.0934 9.95758 32.2599 8.55227 33.7626ZM16.7215 19.9396C16.0132 19.2405 15.6591 18.4021 15.6591 17.4246C15.6591 16.4471 16.0132 15.6103 16.7215 14.9144C17.4298 14.2184 18.2802 13.8704 19.2727 13.8704C20.2653 13.8704 21.1157 14.2192 21.824 14.9167C22.5322 15.6143 22.8864 16.4518 22.8864 17.4294C22.8864 18.4069 22.5322 19.2444 21.824 19.942C21.1141 20.638 20.2637 20.9859 19.2727 20.9859C18.2818 20.9859 17.4314 20.638 16.7215 19.942" fill="black"/>
</svg>
