<svg width="27" height="25" viewBox="0 0 27 25" fill="none" xmlns="http://www.w3.org/2000/svg">
<path d="M12.1839 16.2477L11.2336 22.3705C10.9303 24.3246 10.4233 24.676 8.30143 24.4319L2.82964 23.8023C0.767992 23.5652 0.371908 23.1248 0.531717 21.2126L1.48848 9.76432C1.56245 8.87915 1.59943 8.43658 1.69401 8.00326C1.93342 6.90626 2.59614 5.9428 2.8689 4.8625C3.02765 4.23374 2.97138 3.56709 2.97138 2.92271C2.97138 0.915332 3.42911 0.5 5.60353 0.5H21.3965C23.5709 0.5 24.0286 0.915332 24.0286 2.92271C24.0286 3.56709 23.9724 4.23374 24.1312 4.8625C24.4039 5.9428 25.0666 6.90626 25.306 8.00326C26.2365 12.2668 26.1065 16.8831 26.4683 21.2126C26.6281 23.1248 26.232 23.5652 24.1704 23.8023L18.6986 24.4319C16.5767 24.676 16.0697 24.3246 15.7664 22.3705L14.8161 16.2477" stroke="#141B34" stroke-linecap="round" stroke-linejoin="round"/>
<path d="M9.4375 14.375C10.4159 15.3256 10.9782 16.25 12.4329 16.25H14.1609C15.6156 16.25 16.1779 15.3256 17.1563 14.375" stroke="#141B34" stroke-linecap="round" stroke-linejoin="round"/>
<path d="M2.9375 4.25H24.0625" stroke="#141B34" stroke-linecap="round" stroke-linejoin="round"/>
<path d="M1.71875 11.375C7 11.3831 7 6.62767 7 4.25" stroke="#141B34" stroke-linecap="round" stroke-linejoin="round"/>
<path d="M20 4.25C20 6.62767 20 11.3831 25.2812 11.375" stroke="#141B34" stroke-linecap="round" stroke-linejoin="round"/>
</svg>
